<svg width="32" height="32" viewBox="0 0 32 32" fill="none" xmlns="http://www.w3.org/2000/svg">
<rect width="32" height="32" rx="16" fill="#006EF5"/>
<path d="M17.3334 15.333H13.3334M14.6667 17.9997H13.3334M18.6667 12.6663H13.3334M21.3334 12.533V19.4663C21.3334 20.5864 21.3334 21.1465 21.1154 21.5743C20.9236 21.9506 20.6177 22.2566 20.2413 22.4484C19.8135 22.6663 19.2535 22.6663 18.1334 22.6663H13.8667C12.7466 22.6663 12.1865 22.6663 11.7587 22.4484C11.3824 22.2566 11.0764 21.9506 10.8847 21.5743C10.6667 21.1465 10.6667 20.5864 10.6667 19.4663V12.533C10.6667 11.4129 10.6667 10.8529 10.8847 10.425C11.0764 10.0487 11.3824 9.74274 11.7587 9.55099C12.1865 9.33301 12.7466 9.33301 13.8667 9.33301H18.1334C19.2535 9.33301 19.8135 9.33301 20.2413 9.55099C20.6177 9.74274 20.9236 10.0487 21.1154 10.425C21.3334 10.8529 21.3334 11.4129 21.3334 12.533Z" stroke="white" stroke-width="1.33333" stroke-linecap="round" stroke-linejoin="round"/>
</svg>
