<svg width="40" height="40" viewBox="0 0 40 40" fill="none" xmlns="http://www.w3.org/2000/svg">
<rect width="40" height="40" rx="20" fill="#D1E9FF"/>
<g clip-path="url(#clip0_421_1928)">
<path d="M17.575 17.5C17.7709 16.943 18.1576 16.4734 18.6666 16.1742C19.1757 15.8751 19.7741 15.7657 20.356 15.8656C20.9379 15.9654 21.4657 16.2679 21.8459 16.7196C22.2261 17.1712 22.4342 17.7429 22.4334 18.3333C22.4334 20 19.9334 20.8333 19.9334 20.8333M20 24.1666H20.0084M28.3334 20C28.3334 24.6023 24.6024 28.3333 20 28.3333C15.3976 28.3333 11.6667 24.6023 11.6667 20C11.6667 15.3976 15.3976 11.6666 20 11.6666C24.6024 11.6666 28.3334 15.3976 28.3334 20Z" stroke="#1570EF" stroke-width="1.66667" stroke-linecap="round" stroke-linejoin="round"/>
</g>
<defs>
<clipPath id="clip0_421_1928">
<rect width="20" height="20" fill="white" transform="translate(10 10)"/>
</clipPath>
</defs>
</svg>
