<svg width="32" height="32" viewBox="0 0 32 32" fill="none" xmlns="http://www.w3.org/2000/svg">
<rect width="32" height="32" rx="16" fill="#EAECF0"/>
<path d="M14.9998 14.0015C15.1172 13.6676 15.3491 13.386 15.6542 13.2066C15.9594 13.0273 16.3182 12.9617 16.6671 13.0216C17.016 13.0814 17.3324 13.2628 17.5604 13.5336C17.7883 13.8044 17.9131 14.1471 17.9126 14.5011C17.9126 15.5004 16.4137 16 16.4137 16M16.433 18H16.4397M16.3331 21.3333C19.4627 21.3333 21.9998 18.7963 21.9998 15.6667C21.9998 12.5371 19.4627 10 16.3331 10C13.2035 10 10.6664 12.5371 10.6664 15.6667C10.6664 16.3 10.7703 16.9091 10.962 17.4777C11.0341 17.6917 11.0702 17.7987 11.0767 17.881C11.0831 17.9621 11.0783 18.019 11.0582 18.098C11.0379 18.1779 10.993 18.261 10.9032 18.4272L9.81271 20.4456C9.65717 20.7335 9.5794 20.8774 9.59681 20.9885C9.61197 21.0853 9.66892 21.1705 9.75254 21.2215C9.84854 21.2801 10.0113 21.2632 10.3368 21.2296L13.7508 20.8767C13.8542 20.866 13.9059 20.8606 13.953 20.8624C13.9993 20.8642 14.0321 20.8686 14.0772 20.879C14.1232 20.8896 14.181 20.9118 14.2965 20.9564C14.9286 21.1999 15.6152 21.3333 16.3331 21.3333Z" stroke="#19222F" stroke-width="1.33333" stroke-linecap="round" stroke-linejoin="round"/>
</svg>
