<svg width="40" height="40" viewBox="0 0 40 40" fill="none" xmlns="http://www.w3.org/2000/svg">
<rect width="40" height="40" rx="20" fill="#D1E9FF"/>
<path d="M24.1666 27.5V25.8333C24.1666 24.9493 23.8154 24.1014 23.1903 23.4763C22.5652 22.8512 21.7173 22.5 20.8333 22.5H14.1666C13.2825 22.5 12.4347 22.8512 11.8096 23.4763C11.1844 24.1014 10.8333 24.9493 10.8333 25.8333V27.5M29.1666 27.5V25.8333C29.166 25.0948 28.9202 24.3773 28.4677 23.7936C28.0152 23.2099 27.3817 22.793 26.6666 22.6083M23.3333 12.6083C24.0503 12.7919 24.6858 13.2089 25.1396 13.7936C25.5935 14.3783 25.8398 15.0974 25.8398 15.8375C25.8398 16.5776 25.5935 17.2967 25.1396 17.8814C24.6858 18.4661 24.0503 18.8831 23.3333 19.0667M20.8333 15.8333C20.8333 17.6743 19.3409 19.1667 17.4999 19.1667C15.659 19.1667 14.1666 17.6743 14.1666 15.8333C14.1666 13.9924 15.659 12.5 17.4999 12.5C19.3409 12.5 20.8333 13.9924 20.8333 15.8333Z" stroke="#1570EF" stroke-width="1.66667" stroke-linecap="round" stroke-linejoin="round"/>
</svg>
