<svg width="32" height="32" viewBox="0 0 32 32" fill="none" xmlns="http://www.w3.org/2000/svg">
<rect width="32" height="32" rx="16" fill="#EAECF0"/>
<path d="M13.7267 17.0063L18.28 19.6597M18.2733 12.3397L13.7267 14.993M22 11.333C22 12.4376 21.1046 13.333 20 13.333C18.8954 13.333 18 12.4376 18 11.333C18 10.2284 18.8954 9.33301 20 9.33301C21.1046 9.33301 22 10.2284 22 11.333ZM14 15.9997C14 17.1042 13.1046 17.9997 12 17.9997C10.8954 17.9997 10 17.1042 10 15.9997C10 14.8951 10.8954 13.9997 12 13.9997C13.1046 13.9997 14 14.8951 14 15.9997ZM22 20.6663C22 21.7709 21.1046 22.6663 20 22.6663C18.8954 22.6663 18 21.7709 18 20.6663C18 19.5618 18.8954 18.6663 20 18.6663C21.1046 18.6663 22 19.5618 22 20.6663Z" stroke="#19222F" stroke-width="1.33333" stroke-linecap="round" stroke-linejoin="round"/>
</svg>
