<svg width="22" height="19" fill="none" xmlns="http://www.w3.org/2000/svg"><path d="M2.554.478C1.511.655.645 1.332.256 2.275c-.219.53-.238.699-.238 2.107 0 1.425.011 1.504.225 1.741.175.195.4.275.765.275.461-.001.706-.123.873-.435.078-.146.081-.199.099-1.471.018-1.295.02-1.324.104-1.485.109-.211.278-.389.464-.489l.147-.08h16.61l.147.08c.186.1.355.278.464.489l.086.165v6.251c0 5.736-.005 6.263-.061 6.385a1.325 1.325 0 0 1-.487.52l-.149.08-3.3.019c-3.541.02-3.413.013-3.676.209-.181.134-.275.349-.295.676-.03.512.105.813.448.996l.15.08h3.428c3.824 0 3.58.015 4.174-.259.864-.399 1.456-1.136 1.681-2.094.063-.272.067-.609.067-6.612 0-6.018-.004-6.339-.068-6.613a3.035 3.035 0 0 0-.752-1.428c-.376-.395-.788-.646-1.351-.822l-.323-.102L11.11.453C6.502.45 2.652.462 2.554.478M.721 8.508a.81.81 0 0 0-.535.342c-.126.205-.198.621-.152.882.083.472.313.633 1.084.756 1.85.297 3.374 1.068 4.605 2.333 1.242 1.275 1.931 2.686 2.232 4.572.086.543.177.733.423.885.166.103.202.11.529.109.364-.001.613-.074.785-.229.223-.202.282-.563.192-1.181a9.992 9.992 0 0 0-5.341-7.444A9.823 9.823 0 0 0 1.32 8.526a7.388 7.388 0 0 0-.403-.051l-.196.033M.53 12.609c-.266.121-.42.366-.5.797a.89.89 0 0 0 .001.421c.085.369.288.535.825.674.491.128.666.191.996.362a4.034 4.034 0 0 1 1.514 1.376c.249.38.406.746.541 1.267.125.481.256.698.493.821.144.074.205.083.477.07.636-.03 1.025-.355 1.026-.859.001-.337-.249-1.174-.512-1.716-.78-1.61-2.198-2.759-3.961-3.209-.362-.092-.702-.094-.9-.004m.167 3.866c-.241.056-.317.095-.448.233-.143.15-.212.381-.212.704 0 .474.109.702.421.875.166.092.218.101.55.101.333 0 .384-.009.55-.101.312-.173.422-.401.422-.873 0-.36-.077-.582-.257-.745-.219-.198-.653-.28-1.026-.194" fill-rule="evenodd" fill="#000"/></svg>