<svg width="24" height="25" fill="none" xmlns="http://www.w3.org/2000/svg"><path d="M11.46.2a2.928 2.928 0 0 0-1.486.77c-.605.575-.871 1.148-.951 2.05-.026.286-.067.556-.091.6-.119.215-.373.34-.688.34-.212 0-.313-.056-.684-.375a3.192 3.192 0 0 0-1.237-.63c-.467-.117-1.162-.093-1.614.055-.698.229-1.378.794-1.696 1.41-.276.533-.351.839-.351 1.42.001.79.213 1.369.72 1.97.277.328.379.516.377.699-.001.17-.13.418-.291.559-.151.132-.205.145-.787.194a2.809 2.809 0 0 0-1.707.788c-.716.681-1.032 1.536-.931 2.52.082.791.459 1.464 1.119 1.996.48.386 1.169.634 1.766.634.139 0 .323.02.41.044.315.088.545.454.485.772-.017.09-.102.231-.226.374-.642.741-.915 1.465-.865 2.289a2.982 2.982 0 0 0 2.02 2.661 3.15 3.15 0 0 0 1.803.038c.352-.102.808-.359 1.136-.64.165-.141.349-.275.407-.297.267-.102.638.004.834.236.128.153.134.176.186.731.063.669.264 1.161.672 1.641a2.982 2.982 0 0 0 4.58 0c.449-.529.636-1.028.692-1.849.015-.231.053-.469.083-.528.076-.15.3-.311.469-.339.264-.043.408.016.753.308.705.597 1.464.843 2.329.755.692-.07 1.27-.353 1.785-.872.536-.54.82-1.172.867-1.925.05-.824-.223-1.548-.865-2.289-.227-.261-.279-.434-.204-.682.099-.331.389-.507.833-.508.944-.001 1.988-.632 2.49-1.505.528-.918.489-2.206-.095-3.084-.238-.359-.704-.801-1.046-.992-.412-.23-.793-.335-1.368-.375-.395-.027-.524-.051-.605-.112a.76.76 0 0 1-.293-.454c-.076-.292-.025-.434.289-.805.33-.39.483-.646.615-1.023.384-1.098.127-2.262-.678-3.074-.59-.595-1.175-.854-2.004-.886-.401-.016-.54-.005-.82.065-.438.109-.912.35-1.237.63-.379.326-.47.375-.704.375a.547.547 0 0 1-.336-.09c-.25-.17-.291-.266-.347-.814-.091-.885-.353-1.441-.947-2.006-.554-.526-1.135-.767-1.906-.792a4.33 4.33 0 0 0-.66.022m.976 2.03c.188.09.401.311.485.506.038.09.082.317.096.504.039.508.095.746.26 1.1.268.576.71 1.012 1.298 1.28a2.28 2.28 0 0 0 1.105.236c.747-.005 1.161-.185 1.972-.855a.944.944 0 0 1 .652-.241 1.012 1.012 0 0 1 .977 1.207c-.051.234-.111.332-.448.732-.58.688-.759 1.508-.528 2.417.209.821.654 1.377 1.395 1.742.36.177.536.219 1.105.26.518.037.686.096.906.315.481.481.346 1.318-.259 1.611-.138.067-.3.099-.617.122-1.246.09-2.177.849-2.476 2.019-.209.816.021 1.728.602 2.388.334.379.413.547.413.867a.974.974 0 0 1-.994.998c-.309 0-.488-.082-.842-.388-.548-.473-1.134-.701-1.798-.7-.792.002-1.551.356-2.025.944-.399.495-.541.874-.613 1.634-.044.464-.068.575-.158.729a1 1 0 0 1-1.729-.001c-.086-.147-.116-.273-.158-.669-.054-.501-.076-.598-.2-.907-.209-.519-.689-1.043-1.199-1.308-1.086-.565-2.226-.429-3.138.372-.33.291-.513.374-.82.374a.974.974 0 0 1-.994-.998c0-.306.083-.495.35-.795.82-.924.969-2.031.416-3.096-.429-.828-1.236-1.32-2.269-1.384-.36-.023-.507-.05-.653-.12a.977.977 0 0 1-.548-.905c0-.286.091-.51.287-.707.211-.21.381-.272.873-.315.759-.067 1.261-.293 1.76-.795.987-.992 1.061-2.564.17-3.618-.325-.386-.405-.514-.453-.732a.98.98 0 0 1 .283-.923c.212-.207.381-.27.718-.269.356.002.414.029.869.41.566.473 1.069.664 1.751.663 1.107-.002 2.021-.564 2.463-1.514.174-.375.221-.577.26-1.12.015-.22.045-.445.065-.5.108-.294.406-.565.702-.639.19-.047.509-.015.686.069m-1.115 5.991a4.031 4.031 0 0 0-3.183 2.949c-.152.581-.142 1.418.023 2.026.193.711.711 1.523 1.267 1.985 2.002 1.664 4.999 1.038 6.133-1.281.235-.479.348-.878.395-1.384a3.974 3.974 0 0 0-3.3-4.296 4.124 4.124 0 0 0-1.335.001m1.336 2.017c.634.22 1.15.789 1.303 1.437.031.134.043.363.031.611-.017.364-.032.422-.183.725a2.001 2.001 0 0 1-3.616 0c-.151-.303-.166-.361-.183-.725-.012-.248 0-.477.031-.611.17-.72.828-1.365 1.54-1.511.284-.058.799-.022 1.077.074" fill-rule="evenodd" fill="#000"/></svg>