<svg width="24" height="20" fill="none" xmlns="http://www.w3.org/2000/svg"><path d="M8.556.045a4.846 4.846 0 0 0-1.73.48 5.042 5.042 0 0 0-2.749 3.709c-.055.342-.055 1.19 0 1.532a5.042 5.042 0 0 0 4.157 4.157c.342.055 1.19.055 1.532 0A4.98 4.98 0 0 0 13.967 5a4.905 4.905 0 0 0-1.459-3.526C11.474.44 10.055-.073 8.556.045m7.052.118c-.428.131-.74.924-.546 1.388.123.294.266.393.837.577a3.04 3.04 0 0 1 2.04 2.171c.088.354.091 1.025.005 1.39-.134.576-.444 1.095-.916 1.536-.349.326-.638.49-1.194.677-.222.075-.467.184-.543.242-.28.214-.358.594-.215 1.054.14.449.413.679.81.681.415.002 1.334-.354 1.924-.746.395-.263 1.045-.92 1.317-1.333.61-.925.85-1.723.847-2.82-.003-.926-.192-1.657-.626-2.412-.64-1.115-1.559-1.88-2.727-2.271-.467-.156-.799-.2-1.013-.134M9.94 2.133c.464.152.795.362 1.18.747.383.383.592.712.75 1.18.098.293.107.373.107.94s-.009.647-.107.94c-.158.468-.367.797-.75 1.18-.383.383-.712.592-1.18.75-.293.098-.373.107-.94.107s-.647-.009-.94-.107c-.468-.158-.797-.367-1.18-.75-.383-.383-.592-.712-.75-1.18-.098-.293-.107-.373-.107-.94s.009-.647.107-.94a3.06 3.06 0 0 1 2.114-1.98c.441-.119 1.25-.094 1.696.053m-5.384 9.909a5.019 5.019 0 0 0-3.073 1.441A5.182 5.182 0 0 0 .07 16.257c-.031.182-.048.77-.049 1.643-.001 1.496.014 1.605.25 1.831.348.333 1.165.324 1.477-.016.218-.237.227-.305.253-1.875.023-1.444.025-1.463.13-1.78.156-.466.365-.796.749-1.18.382-.382.71-.591 1.18-.751l.32-.109h9.24l.32.109c.47.16.798.369 1.18.751.384.384.593.714.749 1.18.105.317.107.335.13 1.78.021 1.37.028 1.471.107 1.64.161.347.421.49.894.49.484 0 .77-.166.909-.527.063-.162.071-.336.069-1.543 0-.862-.019-1.464-.049-1.643a5.468 5.468 0 0 0-.433-1.377c-.711-1.486-2-2.465-3.692-2.806-.27-.054-8.648-.084-9.248-.032m15.052.123c-.411.119-.724.875-.563 1.359.093.276.306.432.811.593.981.313 1.676.985 2.01 1.943l.111.32.023 1.46c.025 1.571.034 1.638.252 1.875.318.346 1.178.346 1.496 0 .209-.227.227-.34.244-1.465.018-1.219-.034-1.973-.172-2.507-.389-1.496-1.516-2.789-2.912-3.341-.647-.255-1.008-.321-1.3-.237" fill-rule="evenodd" fill="#000"/></svg>