<svg width="20" height="23" fill="none" xmlns="http://www.w3.org/2000/svg"><path d="M9.749.892a1.383 1.383 0 0 0-.283.141C9.196 1.222.406 8.07.297 8.176c-.148.145-.225.303-.265.55C-.013 9-.01 19.694.035 20.135c.042.406.179.855.362 1.182a3.043 3.043 0 0 0 2.105 1.481c.299.048 14.697.048 14.996 0a3.043 3.043 0 0 0 2.105-1.481c.183-.327.32-.776.362-1.182.045-.441.048-11.135.003-11.409-.042-.261-.12-.412-.3-.579-.292-.274-9.12-7.116-9.285-7.198-.23-.113-.427-.131-.634-.057m4.258 5.334 3.976 3.093V20.15l-.082.161a1.145 1.145 0 0 1-.474.463c-.143.076-.146.076-1.785.086L14 20.869l-.001-4.493c0-2.762-.013-4.58-.033-4.719-.055-.379-.178-.556-.483-.697l-.166-.077H6.683l-.166.077c-.305.141-.428.318-.483.697-.02.139-.033 1.957-.033 4.719L6 20.869l-1.642-.009c-1.639-.01-1.642-.01-1.785-.086a1.145 1.145 0 0 1-.474-.463l-.082-.161V9.319l3.966-3.09c2.182-1.7 3.985-3.091 4.008-3.093.022-.001 1.83 1.389 4.016 3.09M12 16.85v4.017H8v-8.034h4v4.017" fill-rule="evenodd" fill="#000"/></svg>