<svg width="22" height="22" fill="none" xmlns="http://www.w3.org/2000/svg"><path d="M9.02.039a5.779 5.779 0 0 0-.747.086 2.855 2.855 0 0 0-2.157 2.19c-.069.313-.078.492-.093 2.017l-.016 1.675-1.675.016c-1.528.016-1.704.024-2.022.094A2.849 2.849 0 0 0 .218 7.965c-.193.567-.192.521-.208 5.471-.016 4.964.003 5.863.139 6.381a2.848 2.848 0 0 0 2.058 2.038c.542.132 1.437.151 6.354.135 4.952-.017 4.908-.015 5.474-.208a2.856 2.856 0 0 0 1.848-2.092c.069-.317.078-.501.094-2.022l.017-1.674 1.674-.017c1.521-.016 1.705-.025 2.022-.094a2.856 2.856 0 0 0 2.092-1.848c.193-.566.191-.522.208-5.474.016-4.917-.003-5.812-.135-6.354A2.84 2.84 0 0 0 19.793.145a6.043 6.043 0 0 0-.928-.109c-.726-.04-9.113-.038-9.845.003m9.996 1.975c.363.035.557.112.716.283.165.178.22.335.256.727.021.223.03 2.365.022 5.266-.01 3.928-.022 4.923-.061 5.049-.063.203-.326.494-.525.581-.142.062-.297.068-1.794.079l-1.639.012-.016-2.669c-.011-1.837-.029-2.739-.059-2.889-.244-1.237-1.098-2.108-2.313-2.357-.228-.047-.726-.06-2.945-.072l-2.669-.015L8 4.37c.011-1.572.015-1.645.088-1.803.083-.179.325-.42.485-.483.054-.021.222-.051.374-.066.391-.039 9.666-.043 10.069-.004M13.42 8.088c.211.098.394.281.492.492.076.165.076.168.076 5.408 0 4.985-.003 5.252-.066 5.417-.083.214-.364.476-.583.544-.126.039-1.121.051-5.049.061-2.901.008-5.043-.001-5.266-.022-.392-.036-.549-.091-.727-.256-.177-.165-.248-.351-.285-.756-.021-.22-.03-2.382-.022-5.265.01-3.917.022-4.924.061-5.048.055-.18.289-.462.452-.546.061-.032.187-.071.28-.087.093-.016 2.487-.027 5.32-.024 5.142.006 5.152.006 5.317.082m-2.09 2.386c-.03.012-.113.047-.183.078-.08.035-.887.812-2.136 2.057L7.004 14.61l-.743-.738c-.468-.464-.804-.768-.907-.82-.351-.176-.728-.076-1.067.283-.325.343-.402.654-.248.993.103.226 2.389 2.527 2.616 2.632a.886.886 0 0 0 .715-.016c.115-.059.892-.812 2.589-2.51 2.577-2.58 2.581-2.585 2.581-2.929-.001-.311-.285-.719-.647-.932-.15-.088-.456-.142-.563-.099" fill-rule="evenodd" fill="#000"/></svg>