<svg width="22" height="19" viewBox="0 0 22 19" fill="none" xmlns="http://www.w3.org/2000/svg">
<path d="M1 13.5285C1.96089 13.7245 2.84294 14.1987 3.53638 14.8921C4.22982 15.5856 4.70403 16.4676 4.9 17.4285M1 9.47853C3.03079 9.70439 4.92428 10.6146 6.36911 12.0594C7.81395 13.5043 8.72414 15.3977 8.95 17.4285M1 5.42853V3.42853C1 2.89809 1.21071 2.38939 1.58579 2.01431C1.96086 1.63924 2.46957 1.42853 3 1.42853H19C19.5304 1.42853 20.0391 1.63924 20.4142 2.01431C20.7893 2.38939 21 2.89809 21 3.42853V15.4285C21 15.959 20.7893 16.4677 20.4142 16.8427C20.0391 17.2178 19.5304 17.4285 19 17.4285H13M1 17.4285H1.01" stroke="#667085" stroke-width="2" stroke-linecap="round" stroke-linejoin="round"/>
</svg>
