<svg width="22" height="23" fill="none" xmlns="http://www.w3.org/2000/svg"><path d="M10.175.755c-.531.052-.901.104-1.302.184A10.986 10.986 0 0 0 .07 10.694c-.056.596-.024 2.061.057 2.579a11.268 11.268 0 0 0 1.46 4.089 11.042 11.042 0 0 0 7.164 5.093c.801.168 1.318.218 2.249.218 1.825 0 3.232-.331 4.895-1.149 1.137-.56 1.942-1.145 2.898-2.105 1.678-1.684 2.704-3.732 3.08-6.146.081-.518.113-1.983.057-2.579a10.985 10.985 0 0 0-7.263-9.331c-1.225-.432-2.126-.591-3.465-.61a20.348 20.348 0 0 0-1.027.002m2.2 2.046a9.043 9.043 0 0 1 6.714 4.954c.425.867.729 1.882.861 2.878.067.509.058 1.72-.018 2.255-.278 1.956-1.094 3.653-2.42 5.033-1.557 1.619-3.523 2.565-5.742 2.762-.582.052-1.526.025-2.09-.059-3.088-.459-5.78-2.547-6.981-5.414-.489-1.168-.696-2.223-.693-3.532.004-1.448.28-2.64.906-3.923a9.016 9.016 0 0 1 6.961-4.986c.542-.069 1.986-.05 2.502.032m-3.6 3.946c-.361.052-.62.265-.708.582-.023.085-.036 1.641-.036 4.368.001 4.138.002 4.238.073 4.394.256.565.755.787 1.23.549.102-.051 1.573-1.019 3.269-2.15 2.595-1.731 3.103-2.083 3.196-2.219.176-.256.235-.439.218-.677-.031-.425.101-.322-3.394-2.653-1.726-1.151-3.19-2.114-3.252-2.139a1.19 1.19 0 0 0-.596-.055m2.835 3.889c.879.587 1.584 1.08 1.567 1.096-.083.076-3.134 2.091-3.167 2.091-.024 0-.037-.721-.037-2.126 0-1.17.009-2.127.019-2.127s.738.48 1.618 1.066" fill-rule="evenodd" fill="#000"/></svg>