<svg width="24" height="25" viewBox="0 0 24 25" fill="none" xmlns="http://www.w3.org/2000/svg">
<path d="M12 15.1429C13.6569 15.1429 15 13.7997 15 12.1429C15 10.486 13.6569 9.14285 12 9.14285C10.3431 9.14285 9 10.486 9 12.1429C9 13.7997 10.3431 15.1429 12 15.1429Z" stroke="#667085" stroke-width="2" stroke-linecap="round" stroke-linejoin="round"/>
<path d="M19.4 15.1429C19.2669 15.4445 19.2272 15.779 19.286 16.1034C19.3448 16.4278 19.4995 16.7272 19.73 16.9629L19.79 17.0229C19.976 17.2086 20.1235 17.4292 20.2241 17.672C20.3248 17.9148 20.3766 18.175 20.3766 18.4379C20.3766 18.7007 20.3248 18.9609 20.2241 19.2037C20.1235 19.4465 19.976 19.6671 19.79 19.8529C19.6043 20.0388 19.3837 20.1863 19.1409 20.287C18.8981 20.3876 18.6378 20.4394 18.375 20.4394C18.1122 20.4394 17.8519 20.3876 17.6091 20.287C17.3663 20.1863 17.1457 20.0388 16.96 19.8529L16.9 19.7929C16.6643 19.5623 16.365 19.4077 16.0406 19.3488C15.7162 19.29 15.3816 19.3297 15.08 19.4629C14.7842 19.5896 14.532 19.8001 14.3543 20.0684C14.1766 20.3367 14.0813 20.6511 14.08 20.9729V21.1429C14.08 21.6733 13.8693 22.182 13.4942 22.5571C13.1191 22.9321 12.6104 23.1429 12.08 23.1429C11.5496 23.1429 11.0409 22.9321 10.6658 22.5571C10.2907 22.182 10.08 21.6733 10.08 21.1429V21.0529C10.0723 20.7219 9.96512 20.4008 9.77251 20.1316C9.5799 19.8623 9.31074 19.6571 9 19.5429C8.69838 19.4097 8.36381 19.37 8.03941 19.4288C7.71502 19.4877 7.41568 19.6423 7.18 19.8729L7.12 19.9329C6.93425 20.1188 6.71368 20.2663 6.47088 20.367C6.22808 20.4676 5.96783 20.5194 5.705 20.5194C5.44217 20.5194 5.18192 20.4676 4.93912 20.367C4.69632 20.2663 4.47575 20.1188 4.29 19.9329C4.10405 19.7471 3.95653 19.5265 3.85588 19.2837C3.75523 19.0409 3.70343 18.7807 3.70343 18.5179C3.70343 18.255 3.75523 17.9948 3.85588 17.752C3.95653 17.5092 4.10405 17.2886 4.29 17.1029L4.35 17.0429C4.58054 16.8072 4.73519 16.5078 4.794 16.1834C4.85282 15.859 4.81312 15.5245 4.68 15.2229C4.55324 14.9271 4.34276 14.6748 4.07447 14.4972C3.80618 14.3195 3.49179 14.2241 3.17 14.2229H3C2.46957 14.2229 1.96086 14.0121 1.58579 13.6371C1.21071 13.262 1 12.7533 1 12.2229C1 11.6924 1.21071 11.1837 1.58579 10.8086C1.96086 10.4336 2.46957 10.2229 3 10.2229H3.09C3.42099 10.2151 3.742 10.108 4.0113 9.91536C4.28059 9.72276 4.48572 9.45359 4.6 9.14285C4.73312 8.84124 4.77282 8.50666 4.714 8.18226C4.65519 7.85787 4.50054 7.55853 4.27 7.32285L4.21 7.26285C4.02405 7.07711 3.87653 6.85653 3.77588 6.61373C3.67523 6.37094 3.62343 6.11068 3.62343 5.84785C3.62343 5.58502 3.67523 5.32477 3.77588 5.08197C3.87653 4.83918 4.02405 4.6186 4.21 4.43285C4.39575 4.2469 4.61632 4.09938 4.85912 3.99873C5.10192 3.89808 5.36217 3.84628 5.625 3.84628C5.88783 3.84628 6.14808 3.89808 6.39088 3.99873C6.63368 4.09938 6.85425 4.2469 7.04 4.43285L7.1 4.49285C7.33568 4.72339 7.63502 4.87804 7.95941 4.93686C8.28381 4.99568 8.61838 4.95597 8.92 4.82285H9C9.29577 4.69609 9.54802 4.48561 9.72569 4.21732C9.90337 3.94903 9.99872 3.63464 10 3.31285V3.14285C10 2.61242 10.2107 2.10371 10.5858 1.72864C10.9609 1.35357 11.4696 1.14285 12 1.14285C12.5304 1.14285 13.0391 1.35357 13.4142 1.72864C13.7893 2.10371 14 2.61242 14 3.14285V3.23285C14.0013 3.55464 14.0966 3.86903 14.2743 4.13732C14.452 4.40561 14.7042 4.61609 15 4.74285C15.3016 4.87597 15.6362 4.91568 15.9606 4.85686C16.285 4.79804 16.5843 4.64339 16.82 4.41285L16.88 4.35285C17.0657 4.1669 17.2863 4.01938 17.5291 3.91873C17.7719 3.81808 18.0322 3.76628 18.295 3.76628C18.5578 3.76628 18.8181 3.81808 19.0609 3.91873C19.3037 4.01938 19.5243 4.1669 19.71 4.35285C19.896 4.5386 20.0435 4.75918 20.1441 5.00197C20.2448 5.24477 20.2966 5.50502 20.2966 5.76785C20.2966 6.03068 20.2448 6.29094 20.1441 6.53373C20.0435 6.77653 19.896 6.99711 19.71 7.18285L19.65 7.24285C19.4195 7.47853 19.2648 7.77787 19.206 8.10226C19.1472 8.42666 19.1869 8.76124 19.32 9.06285V9.14285C19.4468 9.43862 19.6572 9.69087 19.9255 9.86855C20.1938 10.0462 20.5082 10.1416 20.83 10.1429H21C21.5304 10.1429 22.0391 10.3536 22.4142 10.7286C22.7893 11.1037 23 11.6124 23 12.1429C23 12.6733 22.7893 13.182 22.4142 13.5571C22.0391 13.9321 21.5304 14.1429 21 14.1429H20.91C20.5882 14.1441 20.2738 14.2395 20.0055 14.4172C19.7372 14.5948 19.5268 14.8471 19.4 15.1429Z" stroke="#667085" stroke-width="2" stroke-linecap="round" stroke-linejoin="round"/>
</svg>
