<svg width="14" height="19" fill="none" xmlns="http://www.w3.org/2000/svg"><path d="M12.624.339a.781.781 0 0 0-.543.476l-.053.13v8.318c0 6.488.007 8.339.029 8.412a.872.872 0 0 0 .294.424c.295.202.848.227 1.198.054.262-.129.387-.342.428-.73.028-.274.03-15.974.001-16.268-.028-.29-.097-.46-.245-.608-.176-.176-.321-.225-.69-.235-.211-.006-.327.002-.419.027M6.627 6.336a.784.784 0 0 0-.543.475l-.052.131v5.331c0 5.223.001 5.335.045 5.454.131.354.452.542.923.542.471 0 .792-.188.923-.542.044-.119.045-.231.045-5.454V6.942l-.056-.14a.812.812 0 0 0-.434-.432c-.183-.071-.653-.089-.851-.034M.61 12.341a.774.774 0 0 0-.545.534l-.052.157-.008 2.063c-.008 2.144.002 2.439.086 2.661.135.356.492.537.994.506.256-.015.415-.061.564-.163a.927.927 0 0 0 .294-.412c.021-.062.03-.647.035-2.355.007-2.49.01-2.434-.13-2.662a.847.847 0 0 0-.41-.315c-.184-.063-.637-.07-.828-.014" fill-rule="evenodd" fill="#000"/></svg>