<svg width="21" height="21" fill="none" xmlns="http://www.w3.org/2000/svg"><path d="M2.476.631a3.075 3.075 0 0 0-1.501.761 2.89 2.89 0 0 0-.939 1.901c-.049.477-.049 14.135 0 14.575.077.699.355 1.293.828 1.777.451.461 1.013.76 1.624.864.159.027 2.391.036 7.645.028l7.42-.01.261-.081a3.05 3.05 0 0 0 2.055-2.053l.099-.315V10.233l-.105-.204c-.148-.287-.359-.405-.769-.43-.489-.031-.811.114-.969.436l-.082.168L18.025 14l-.017 3.798-.081.178a1.113 1.113 0 0 1-.497.51l-.157.082-7.217.009c-7.204.009-7.217.009-7.409-.063a1.074 1.074 0 0 1-.567-.536l-.084-.18V3.343l.082-.178c.102-.217.301-.42.512-.519l.158-.073 5.81-.018 5.81-.017.189-.108c.274-.156.396-.38.416-.77.02-.375-.058-.64-.243-.825-.257-.257.172-.24-6.293-.236C5.25.601 2.568.616 2.476.631m17.157 1.002c-.16.078-.937.838-4.915 4.811l-4.725 4.719L8.75 9.928c-.943-.938-1.283-1.254-1.408-1.312a.813.813 0 0 0-.679 0c-.204.096-.504.386-.611.59a.844.844 0 0 0 0 .734c.055.107.616.693 1.748 1.827 1.465 1.467 1.692 1.681 1.872 1.763a.741.741 0 0 0 .671-.002c.171-.078 10.437-10.315 10.571-10.542.072-.122.086-.191.086-.422 0-.243-.012-.294-.099-.431-.129-.202-.392-.441-.577-.525a.804.804 0 0 0-.691.025" fill-rule="evenodd" fill="#000"/></svg>