<svg width="24" height="20" viewBox="0 0 24 20" fill="none" xmlns="http://www.w3.org/2000/svg">
<path fill-rule="evenodd" clip-rule="evenodd" d="M23.3333 3.33464H0.666667C0.29848 3.33464 0 3.03616 0 2.66797V1.33464C0 0.966449 0.29848 0.667969 0.666667 0.667969H23.3333C23.7015 0.667969 24 0.966449 24 1.33464V2.66797C24 3.03616 23.7015 3.33464 23.3333 3.33464ZM20 10.668V9.33463C20 8.9665 19.7015 8.66797 19.3333 8.66797H4.66667C4.29848 8.66797 4 8.9665 4 9.33463V10.668C4 11.0361 4.29848 11.3346 4.66667 11.3346H19.3333C19.7015 11.3346 20 11.0361 20 10.668ZM16 17.3346V18.668C16 19.0361 15.7015 19.3346 15.3333 19.3346H8.66667C8.29848 19.3346 8 19.0361 8 18.668V17.3346C8 16.9665 8.29848 16.668 8.66667 16.668H15.3333C15.7015 16.668 16 16.9665 16 17.3346Z" fill="#FD6853"/>
</svg>
