<svg width="24" height="23" viewBox="0 0 24 23" fill="none" xmlns="http://www.w3.org/2000/svg">
<g id="teams">
<path id="rectangle" d="M14.25 10.4274C14.25 10.0533 14.5533 9.75 14.9274 9.75H23.3226C23.6967 9.75 24 10.0533 24 10.4274V15.375C24 18.0674 21.8174 20.25 19.125 20.25C16.4326 20.25 14.25 18.0674 14.25 15.375V10.4274Z" fill="#EAECF0"/>
<path id="rectangle_2" d="M6.75 9.16935C6.75 8.66161 7.16161 8.25 7.66935 8.25H17.8306C18.3384 8.25 18.75 8.66161 18.75 9.16935V16.5C18.75 19.8137 16.0637 22.5 12.75 22.5C9.43629 22.5 6.75 19.8137 6.75 16.5V9.16935Z" fill="#D0D5DD"/>
<circle id="ellipse" cx="20.25" cy="6" r="2.25" fill="#98A2B3"/>
<circle id="ellipse_2" cx="13.5" cy="4.5" r="3" fill="#98A2B3"/>
<g id="Mask Group">
<mask id="mask0_939_3692" style="mask-type:alpha" maskUnits="userSpaceOnUse" x="6" y="0" width="13" height="23">
<g id="Union">
<path d="M12.75 7.5C14.8211 7.5 16.5 5.82111 16.5 3.75C16.5 1.67889 14.8211 0 12.75 0C10.6789 0 9 1.67889 9 3.75C9 5.82111 10.6789 7.5 12.75 7.5Z" fill="#D0D5DD"/>
<path d="M7.66937 8.25C7.16162 8.25 6.75 8.66162 6.75 9.16937V16.5C6.75 19.8138 9.43625 22.5 12.75 22.5C16.0638 22.5 18.75 19.8138 18.75 16.5V9.16937C18.75 8.66162 18.3384 8.25 17.8306 8.25H7.66937Z" fill="#D0D5DD"/>
</g>
</mask>
<g mask="url(#mask0_939_3692)">
<path id="rectangle_3" d="M5.25 9.75C5.25 8.09315 6.59315 6.75 8.25 6.75H12C13.6569 6.75 15 8.09315 15 9.75V17.25C15 18.9069 13.6569 20.25 12 20.25H5.25V9.75Z" fill="#98A2B3"/>
</g>
</g>
<rect id="rectangle_4" y="5.25" width="13.5" height="13.5" rx="2" fill="#D0D5DD"/>
<path id="T" d="M9.75 8.25H3.75V9.62605H5.99621V15.75H7.50379V9.62605H9.75V8.25Z" fill="white"/>
</g>
</svg>
