<svg width="24" height="24" viewBox="0 0 24 24" fill="none" xmlns="http://www.w3.org/2000/svg">
<mask id="mask0_544_24694" style="mask-type:alpha" maskUnits="userSpaceOnUse" x="0" y="0" width="24" height="24">
<path d="M22.9124 14.5792C24.386 8.54663 20.5216 2.50154 14.281 1.07709C8.04048 -0.347366 1.78694 3.38823 0.313363 9.42077C-1.16021 15.4533 2.7042 21.4984 8.94476 22.9229C15.1853 24.3473 21.4389 20.6117 22.9124 14.5792Z" fill="#FFF6ED"/>
</mask>
<g mask="url(#mask0_544_24694)">
<path d="M22.9124 14.5792C24.386 8.54663 20.5216 2.50154 14.281 1.07709C8.04048 -0.347366 1.78694 3.38823 0.313363 9.42077C-1.16021 15.4533 2.7042 21.4984 8.94476 22.9229C15.1853 24.3473 21.4389 20.6117 22.9124 14.5792Z" fill="#FFF6ED"/>
<path d="M8.3392 9.93199L7.82466 7.345C7.68173 6.67324 7.75325 5.41547 8.61074 4.77228C9.46823 4.1291 14.0134 4.05765 14.8138 4.7723C15.6143 5.48694 15.8144 6.44455 15.6143 7.345L14.9711 11.2041L8.3392 9.93199Z" fill="#344054"/>
<path d="M8.33932 9.93195C8.21068 9.63181 8.02487 9.36024 7.73902 9.21731C7.46745 9.06009 7.09584 9.0458 6.83857 9.23161C6.55272 9.43171 6.45267 9.8319 6.48125 10.1892C6.52413 10.7895 6.88145 11.3612 7.39599 11.6757C7.91053 11.9901 8.58229 12.0473 9.13971 11.8043" fill="#9B8AFB"/>
<path d="M15.0143 10.1321C15.1429 9.83194 15.3287 9.56038 15.6146 9.41745C15.8861 9.26023 16.2577 9.24593 16.515 9.43174C16.8009 9.63184 16.9009 10.032 16.8723 10.3894C16.8295 10.9897 16.4721 11.5614 15.9576 11.8758C15.443 12.1903 14.7713 12.2474 14.2139 12.0044" fill="#9B8AFB"/>
<path d="M19.9737 19.4224C19.6164 18.2933 18.9732 17.1213 17.9155 16.5924C17.2866 16.278 16.5863 16.1779 15.8859 16.1065C15.2142 16.035 14.4852 15.9636 13.9993 15.4919C13.3847 14.9059 13.3847 13.934 13.4133 13.0907H9.6114C9.65428 13.9483 9.65428 14.9059 9.02539 15.4919C8.53944 15.9493 7.8105 16.035 7.13874 16.1065C6.4384 16.1779 6.04806 16.278 5.41918 16.5924C4.37581 17.1213 3.73263 18.2933 3.36102 19.4224H19.9737Z" fill="#BDB4FE"/>
<path d="M9.62562 13.6052C9.82572 13.8196 10.0401 14.034 10.2545 14.2341C10.7405 14.6915 11.3122 15.1346 11.9553 15.349C12.6128 15.5776 13.3275 15.6205 14.0135 15.5062C13.3989 14.9202 13.3989 13.9483 13.4275 13.105H9.61133C9.62562 13.2622 9.62562 13.4337 9.62562 13.6052Z" fill="#344054"/>
<path d="M11.6413 14.5343C9.81178 14.5343 8.31104 13.0335 8.31104 11.204V8.18826C8.31104 6.35878 9.81178 4.85803 11.6413 4.85803C13.4707 4.85803 14.9715 6.35878 14.9715 8.18826V11.204C14.9715 13.0335 13.4707 14.5343 11.6413 14.5343Z" fill="#BDB4FE"/>
<path d="M10.5977 12.1045C10.7549 12.4904 11.1408 12.762 11.5839 12.762C12.0269 12.762 12.4128 12.4904 12.5701 12.1045H10.5977Z" fill="#F4F4F2"/>
<path d="M10.1543 11.0754C10.3279 11.0754 10.4687 10.9346 10.4687 10.761C10.4687 10.5873 10.3279 10.4465 10.1543 10.4465C9.98062 10.4465 9.83984 10.5873 9.83984 10.761C9.83984 10.9346 9.98062 11.0754 10.1543 11.0754Z" fill="#344054"/>
<path d="M13.1562 10.7753C13.1562 10.9468 13.0133 11.0897 12.8418 11.0897C12.6703 11.0897 12.5273 10.9468 12.5273 10.7753C12.5273 10.6037 12.6703 10.4608 12.8418 10.4608C13.0133 10.4608 13.1562 10.6037 13.1562 10.7753Z" fill="#344054"/>
<path d="M11.0549 11.447C11.1692 11.6328 11.3836 11.7472 11.598 11.7043C11.7981 11.6757 11.9696 11.5185 12.0268 11.3184C12.0411 11.2612 12.0125 11.1755 11.9411 11.1612C11.8696 11.1469 11.8124 11.1755 11.7838 11.2469C11.7838 11.2612 11.7838 11.2612 11.7695 11.2755C11.7552 11.3041 11.7695 11.2898 11.7695 11.2755C11.7552 11.2898 11.7552 11.3041 11.741 11.3184C11.741 11.3327 11.7267 11.3327 11.7267 11.347C11.7267 11.3613 11.741 11.3327 11.7267 11.347C11.7124 11.3613 11.6981 11.3756 11.6838 11.3899C11.6838 11.3899 11.6552 11.4041 11.6695 11.4041C11.6838 11.3899 11.6552 11.4184 11.6552 11.4184C11.6409 11.4327 11.6266 11.4327 11.6123 11.447C11.598 11.4613 11.6266 11.447 11.6123 11.447C11.598 11.447 11.598 11.447 11.5837 11.4613C11.5694 11.4613 11.5552 11.4756 11.5266 11.4756C11.5409 11.4756 11.5409 11.4756 11.5266 11.4756C11.5123 11.4756 11.498 11.4756 11.498 11.4756C11.4837 11.4756 11.4837 11.4756 11.4694 11.4756C11.4408 11.4756 11.498 11.4756 11.4551 11.4756C11.4408 11.4756 11.4122 11.4613 11.3979 11.4613C11.3979 11.4613 11.3836 11.4613 11.3836 11.447C11.3693 11.4327 11.3551 11.4327 11.3408 11.4184C11.3265 11.4184 11.3265 11.4041 11.3122 11.4041C11.2979 11.3899 11.2836 11.3756 11.2693 11.3613C11.255 11.347 11.2836 11.3756 11.2693 11.3613C11.2693 11.347 11.255 11.347 11.255 11.3327C11.2264 11.2755 11.1407 11.2469 11.0835 11.2898C11.0406 11.3184 11.012 11.3899 11.0549 11.447Z" fill="#9B8AFB"/>
<path d="M9.62586 11.5899C9.62586 11.79 9.44005 11.9615 9.21137 11.9615C8.98268 11.9615 8.79688 11.79 8.79688 11.5899C8.79688 11.3898 8.98268 11.2183 9.21137 11.2183C9.44005 11.2183 9.62586 11.3898 9.62586 11.5899Z" fill="#9B8AFB"/>
<path d="M14.2279 11.7329C14.2279 11.933 14.0421 12.1045 13.8134 12.1045C13.5847 12.1045 13.3989 11.933 13.3989 11.7329C13.3989 11.5328 13.5847 11.3613 13.8134 11.3613C14.0421 11.3613 14.2279 11.5328 14.2279 11.7329Z" fill="#9B8AFB"/>
<path d="M11.1835 23.6129C11.0978 22.6267 10.8259 17.4643 10.3971 16.5782C10.1255 16.0065 9.66816 15.3919 9.03926 15.4205C7.96727 16.1208 6.19277 15.871 5.03144 16.6451C2.7088 18.1935 3.01663 22.3265 2.81652 23.6129H11.1835Z" fill="#12B76A"/>
<path d="M20.0308 19.4224C19.8307 18.1218 19.0303 16.9069 17.8012 16.4352C16.6006 15.9778 15.0855 16.1065 14.0136 15.4061C13.3847 15.3918 12.9273 15.9921 12.6558 16.5639C12.227 17.4643 11.9697 22.6266 11.8696 23.6128H20.0308V19.4224Z" fill="#12B76A"/>
<path d="M8.68355 6.60179C8.62638 7.74521 9.59829 8.80288 10.7274 8.9601C11.4421 9.06015 12.271 8.77429 12.5283 8.08824C13.0429 8.3598 13.7003 8.18829 14.1434 7.83097C14.6008 7.47365 14.8152 6.83047 14.6722 6.27305C14.515 5.67276 13.9433 5.24397 13.3716 5.00099C12.7713 4.74372 12.1138 4.68655 11.4707 4.64367C10.8275 4.60079 10.1557 4.5865 9.55541 4.82948C8.9837 5.05816 8.72643 5.9872 8.68355 6.60179Z" fill="#344054"/>
</g>
</svg>
